<svg xmlns="http://www.w3.org/2000/svg" viewBox="0 0 480 480" fill="none" shape-rendering="auto"><metadata xmlns:rdf="http://www.w3.org/1999/02/22-rdf-syntax-ns#" xmlns:xsi="http://www.w3.org/2001/XMLSchema-instance" xmlns:dc="http://purl.org/dc/elements/1.1/" xmlns:dcterms="http://purl.org/dc/terms/"><rdf:RDF><rdf:Description><dc:title>Custom Avatar</dc:title><dc:creator>Ashley Seo</dc:creator><dc:source xsi:type="dcterms:URI">https://www.figma.com/community/file/881358461963645496</dc:source><dcterms:license xsi:type="dcterms:URI">https://creativecommons.org/licenses/by/4.0/</dcterms:license><dc:rights>Remix of „Custom Avatar” (https://www.figma.com/community/file/881358461963645496) by „Ashley Seo”, licensed under „CC BY 4.0” (https://creativecommons.org/licenses/by/4.0/)</dc:rights></rdf:Description></rdf:RDF></metadata><mask id="viewboxMask"><rect width="480" height="480" rx="0" ry="0" x="0" y="0" fill="#fff" /></mask><g mask="url(#viewboxMask)"><g transform="matrix(.85775 0 0 .85427 52 47)"><path d="M264 38.6s131.4 20.6 121.4 208.1c0 .7 15.2 10.9 16.4 12a77.1 77.1 0 0 1 23.4 36.3c13.9 51.3-35.7 104.2-75.8 118.2a155 155 0 0 1-46.7 8.3c-103.1 3-239.7-62.7-246.7-191a202.7 202.7 0 0 1 15.1-83.9c0 .1 57.4-142.5 192.9-108Z" fill="#e2ba87"/><path d="M388.7 248.7a57 57 0 0 0-3.2 10.5 40 40 0 0 0 8.5 30.4 42.3 42.3 0 0 0 33 15.7c-3.2-31.7-29-50.7-38.3-56.6ZM203.5 332c24.4-5.2 39.6-31 33.9-57.5-5.7-26.5-30.2-43.7-54.6-38.5-24.4 5.3-39.5 31-33.8 57.6 5.7 26.5 30.1 43.7 54.5 38.5Z" fill="#DC2400" style="mix-blend-mode:multiply" opacity=".1"/><path opacity=".1" d="M323 257.9s20.9-19.9 37-1.2Z" fill="#000"/><path d="M128.7 356.9C59.3 391.7-3.7 304.4 16.5 255.3c12.9-31.4 50.4-33.8 72.1-5.2a185 185 0 0 1 29.1 59.1" fill="#e2ba87"/><path opacity=".1" d="M71.5 279c9 9 16.1 22.5 25 30-1.7-12.5-4.3-26-10.4-37.3-6.2-11.6-17.5-21-29-20.3-14.2 1-25.9 17.6-27.4 32.6 1-9 19-15 25.9-14.2 10.8 20.4 15 60.6 15 60.6 9-22.7 5.4-40.7 1-51.5Z" fill="#000"/></g><g transform="matrix(.85472 0 0 .855 19 -17)"><path d="M393.3 367c3 1.7 24.1-24.8 38.2-16.7 4.7 2.7 8.3 7.3 11 12.3 6 11 8 24.4 5.7 36.8a67 67 0 0 1-29 41.2c-37.4 25.5-67 20.7-106.8 6-31.4-11.7-74-35.6-65.2-78.7 15.6-76 146.1-1 146.1-1Z" fill="#873C41"/><path d="M285.3 362c10.2 6.4 22.5 7 33.6 4.5 2.1-.5 3.8 1.3 4.3 3.4 5.4 21 36 32 51.5 18.5 1.2-1 3.3-1.3 4.5-.1 8.3 7.8 21.6 10 31.4 4.6 13.8-7.5 13.7-28.6 10-43.3-12.2 3.7-25 18.7-27.3 17.3 0 0-80.1-46-122.3-29.4a31 31 0 0 0 14.3 24.6Z" fill="#fff"/><path d="M400.3 443.8c-22-20.1-48.9-31.4-76.2-39.3-23.4-6.9-49.7-11.3-73.4-4.5 11 23.5 39.2 38.2 61.7 46.6 34.8 12.9 61.8 18.2 93 2.2-1.7-1.7-3.3-3.4-5.1-5Z" fill="#EE7E8B"/><path d="m279.6 335 7 4a605 605 0 0 0 14.1 7.2c15.4 7.7 39.2 15.9 51.6 20.1l2.2.8c14.5 5 32.2 10.4 51.5 10.4a30.8 30.8 0 0 0 14.8-4.3 1.5 1.5 0 0 1 1.4 2.6 33.9 33.9 0 0 1-16.2 4.7c-19.8 0-38-5.6-52.5-10.6l-2.2-.7a486.5 486.5 0 0 1-53-21h-.1c-3.8-1.8-8.6-4.2-13-6.6-3.7-2-7-3.9-9.7-5.6l4.1-1Z" fill="#C4C4C4"/><rect x="399.7" y="372" width="12" height="12" rx="2" transform="rotate(3.2 399.7 372)" fill="#A09E9E"/><rect x="349.1" y="361" width="12" height="12" rx="2" transform="rotate(15 349.1 361)" fill="#A09E9E"/><rect x="297.3" y="340" width="12" height="12" rx="2" transform="rotate(26.4 297.3 340)" fill="#A09E9E"/></g><g transform="matrix(.85472 0 0 .855 19 -17)"><path d="M401.9 284.8c3.9 1.8 9.3 3.9 14.5 5.1 1.6 3.1 2.5 6.9 2.5 10.3 0 8-3.6 16.5-13 15.5-7.7-.8-9.7-11-9.7-16 0-6 2.2-12 5.7-15ZM296.2 292.5c-.4 2-.6 4-.6 6 0 12.5 6.2 19 15.5 21.5 13 2 19.3-7.7 19.3-19.5 0-7-2.9-13.8-7.4-18.2a55.3 55.3 0 0 1-26.8 10.2Z" fill="#2A1200"/><path d="M324.8 237.7a43.9 43.9 0 0 0-32.3 24.2c-2 4.2-1.1 10 3.2 12.7 4 2.4 9.6 1.7 11.8-2.7.6-1.4 1.3-2.6 2-3.9.3-.4 1.1-1.2 1.3-1.7l.4-.4a37.4 37.4 0 0 1 4.7-4.7c.5-.3 1-.8 1.5-1a34.2 34.2 0 0 1 5.7-3 36.2 36.2 0 0 1 6.1-1.5c4.4-.7 7.5-6.2 6.2-10.8-1.5-5-5.8-7.9-10.6-7.2ZM425.2 260.4c-3.1-7.8-9.1-14-16.4-17.1-2-1-4.6-.7-6.6.2-1.9 1-3.8 3-4.5 5.2a10 10 0 0 0 0 7 9 9 0 0 0 4.7 4.9l1 .5c1 .6 2 1.4 2.9 2.2 1 1 1.8 2.2 2.5 3.4l.7 1.5c.9 2.1 2.7 4 4.7 4.8 2 .8 4.6.8 6.5-.3 2-1 3.8-2.9 4.6-5.2.7-2.3.8-4.8 0-7Z" fill="#71472D"/></g><g transform="matrix(.85472 0 0 .85667 18 -15)"><path d="M94.2 287.6c-.2 4.6-.1 9.2.1 13.8 38.5 6.4 56.7 47.2 61 66.8 0 0 11.4.6 14-1.5 14.3-7.4 39.5-37.5 27.1-99.1-6-28-1.9-50.4 47.8-85.2 49.6-34.9 128.5-13.3 144.6-.4 13 10.4 14.3 12 18.2 14.5-34.4-77.5-101.9-87.7-101.9-87.7-136.9-34.2-195.3 108.6-195.3 108.6-9 22-15 45.8-15.6 70.2Z" fill="#d56c0c"/></g><g transform="matrix(.85472 0 0 .85667 14 -12)"><g fill-rule="evenodd" clip-rule="evenodd"><path d="m479 283.3-49-1.8-.5-10.5 49.8 2.3-.2 10Z" fill="#896307"/><path d="M304 220.7c-27.2 4.3-46 32.2-41.2 63 4.9 30.9 31.4 51.6 58.6 47.3 27.2-4.3 46.1-32.2 41.3-63-4.9-30.8-31.4-51.6-58.6-47.3ZM252.2 273c.5-30.6 20.9-57.4 50.3-62 33.3-5.3 64.4 20 70 55.6l3.3-1.2a27 27 0 0 1 13-.7c.6-12.5 4.2-24 10.2-33a40.6 40.6 0 0 1 31.5-19.8 42 42 0 0 1 34 16.3 70.9 70.9 0 0 1 15.8 40.8 69 69 0 0 1-10 42.3 40.6 40.6 0 0 1-31.6 19.7 42 42 0 0 1-34-16.2A70.6 70.6 0 0 1 389 275c-3.4-1.4-7-1.2-10.4-.2-2.1.6-4 1.5-5.3 2.2.3 31.3-20.3 59-50.3 63.8-33.4 5.2-64.4-20.1-70-55.6a73 73 0 0 1-.3-2.2l-86.4-14a102.2 102.2 0 0 0-44.4 2.6c-12 4-18.3 18.8-18.5 28l-9.9-.2c.3-15.3 11.4-32.6 25.3-37.3 13.8-4.6 31.7-5.3 48.8-3v.1l84.6 13.6Zm155-35.8a59 59 0 0 0-8.4 36c1 14.1 6.1 26.5 13.4 35 7.3 8.7 16.6 13.3 26 12.8 9.3-.5 17.8-6 23.8-15.2a59 59 0 0 0 8.4-36.1c-1-14.1-6-26.5-13.4-35-7.3-8.6-16.5-13.3-26-12.8-9.3.5-17.7 6-23.8 15.3Z" fill="#C5900F"/></g></g></g></svg>